<svg width="248" height="113" viewBox="0 0 248 113" fill="none" xmlns="http://www.w3.org/2000/svg">
<g clip-path="url(#clip0)">
<path d="M56.3279 102.029H51.3023V104.475H53.6057C55.5601 104.475 57.2353 105.174 57.2353 107.48C57.2353 109.786 55.5601 110.624 53.6057 110.624H49.9062V100.771H56.3977V102.029H56.3279ZM51.3023 105.733V109.436H53.1171C54.6527 109.436 55.7695 109.157 55.7695 107.55C55.7695 105.942 54.7225 105.733 53.1171 105.733H51.3023Z" fill="white"/>
<path d="M62.5405 110.974H62.4707V100.771H63.9365V107.759L70.6373 100.491H70.7071V110.624H69.2413V103.706L62.5405 110.974Z" fill="white"/>
<path d="M76.9186 108.108C77.7562 109.087 78.7334 109.576 79.8502 109.576C81.5254 109.576 82.5026 108.877 82.5026 107.689C82.5026 106.152 81.0368 105.942 79.8502 105.942H78.9428V104.754H79.7106C81.316 104.754 82.014 104.195 82.014 103.217C82.014 102.099 80.967 101.749 79.7106 101.749C78.873 101.749 77.7562 102.099 77.128 103.077L76.2206 102.168C77.128 100.841 78.8032 100.491 79.8502 100.491C82.0838 100.491 83.4798 101.4 83.4798 103.077C83.4798 103.985 82.9912 105.034 81.7348 105.243V105.313C83.4798 105.593 83.9684 106.641 83.9684 107.689C83.9684 109.296 82.712 110.764 79.92 110.764C78.3146 110.764 76.8488 110.275 75.9414 108.947L76.9186 108.108Z" fill="white"/>
<path d="M90.8096 110.624H89.3438V100.771H90.8096V105.034H95.8352V100.771H97.2312V110.624H95.8352V106.222H90.8096V110.624Z" fill="white"/>
<path d="M102.955 100.771H109.377V102.029H104.421V105.034H108.539V106.222H104.421V109.436H109.516V110.624H102.955V100.771Z" fill="white"/>
<path d="M118.869 109.576C120.126 109.576 121.033 109.017 121.661 108.039L122.778 108.807C121.941 110.205 120.614 110.834 118.869 110.834C116.008 110.834 114.123 108.947 114.123 105.732C114.123 102.518 116.008 100.491 118.869 100.491C120.614 100.491 121.871 101.12 122.708 102.448L121.592 103.287C120.894 102.238 120.056 101.819 118.869 101.819C117.055 101.819 115.589 103.147 115.589 105.663C115.589 108.318 117.055 109.576 118.869 109.576Z" fill="white"/>
<path d="M132.83 106.361H127.734V107.549H132.83V106.361Z" fill="white"/>
<path d="M138.203 100.771H139.669V109.436H144.625V100.771H146.091V109.436H147.207V113H145.742V110.624H138.203V100.771Z" fill="white"/>
<path d="M152.094 100.771H158.515V102.029H153.49V105.034H157.678V106.222H153.49V109.436H158.655V110.624H152.094V100.771Z" fill="white"/>
<path d="M165.355 110.624H163.959V100.771H165.355V105.034H170.45V100.771H171.846V110.624H170.45V106.222H165.355V110.624Z" fill="white"/>
<path d="M184.9 102.029H181.689V110.624H180.293V102.029H177.082V100.771H184.9V102.029Z" fill="white"/>
<path d="M191.601 110.624H190.135V100.771H193.415C195.579 100.771 197.185 101.61 197.185 103.916C197.185 106.222 195.649 107.13 193.415 107.13H191.601V110.624ZM193.066 105.942C194.742 105.942 195.719 105.523 195.719 103.916C195.719 102.308 194.672 102.029 193.066 102.029H191.531V105.942H193.066Z" fill="white"/>
<path d="M13.8204 84.0688H4.39741L2.44301 88.5413H0L9.07402 68.2754H9.28342L18.3574 88.5413H15.8446L13.8204 84.0688ZM5.16521 82.182H13.0526L9.07402 73.0274L5.16521 82.182Z" fill="white"/>
<path d="M25.9664 78.1982L34.6217 68.834H37.6231L28.5491 78.2681V78.4778L38.6003 88.5409H35.3197L25.9664 78.6175V88.5409H23.5234V68.834H25.9664V78.1982Z" fill="white"/>
<path d="M44.1133 68.834H51.3027C55.8397 68.834 57.8639 70.6509 57.8639 73.6559C57.8639 75.5427 56.9565 77.4994 54.7927 78.1284V78.2681C57.4451 78.6874 58.8411 80.9237 58.8411 83.09C58.8411 86.2347 56.7471 88.5409 52.0705 88.5409H44.1133V68.834ZM51.0235 77.4295C54.0947 77.4295 55.4907 76.1716 55.4907 73.8655C55.4907 71.8389 54.0947 70.7208 51.0933 70.7208H46.5563V77.4295H51.0235ZM46.5563 86.5841H51.8611C55.0021 86.5841 56.3981 85.1865 56.3981 82.9503C56.3981 80.7839 54.8625 79.3862 51.6517 79.3862H46.5563V86.5841Z" fill="white"/>
<path d="M64.915 89.0999H64.7754V68.834H67.1486V83.5792L80.62 68.2051H80.7596V88.5409H78.3864V73.7258L64.915 89.0999Z" fill="white"/>
<path d="M92.2052 75.6126C92.2052 82.1117 91.577 88.2613 87.1098 88.9602C86.8306 89.03 85.993 88.9602 85.5742 88.9602V86.8637C85.993 86.8637 86.4816 86.9336 86.9004 86.8637C89.9018 86.3046 89.9018 79.8055 89.9018 76.1716V68.834H103.024V88.5409H100.581V71.0003H92.2052V75.6126Z" fill="white"/>
<path d="M118.172 68.4146C123.826 68.4146 127.456 72.3979 127.456 78.6873C127.456 84.9767 123.826 88.96 118.172 88.96C112.518 88.96 108.889 84.9767 108.889 78.6873C108.958 72.3979 112.588 68.4146 118.172 68.4146ZM118.172 86.7936C122.29 86.7936 124.943 83.6489 124.943 78.6174C124.943 73.5859 122.221 70.511 118.172 70.511C114.124 70.511 111.401 73.5859 111.401 78.6174C111.401 83.6489 114.124 86.7936 118.172 86.7936Z" fill="white"/>
<path d="M135.832 88.5409H133.389V68.834H135.832V77.4994H146.371V68.834H148.745V88.5409H146.371V79.4561H135.832V88.5409Z" fill="white"/>
<path d="M164.729 88.5409V68.834H167.102V86.3046H177.223V88.5409H164.729Z" fill="white"/>
<path d="M185.459 68.834H183.016V88.5409H185.459V68.834Z" fill="white"/>
<path d="M194.604 74.0053V88.5409H192.23V68.2051H192.37L205.842 83.3696V68.834H208.215V89.0999H208.075L194.604 74.0053Z" fill="white"/>
<path d="M217.358 78.1982L226.083 68.834H229.084L220.01 78.2681V78.4778L229.991 88.5409H226.781L217.358 78.6175V88.5409H214.984V68.834H217.358V78.1982Z" fill="white"/>
<path d="M240.461 88.9601C238.088 88.9601 234.598 88.2612 232.992 85.4659L234.598 83.8586C236.133 86.0949 238.576 86.7238 240.461 86.7238C243.392 86.7238 245.486 85.6057 245.486 83.1598C245.486 80.9934 244.021 80.1549 240.81 79.3862C236.692 78.3379 233.551 77.4294 233.551 73.516C233.551 70.4412 236.133 68.3447 240.531 68.3447C242.834 68.3447 245.347 68.6941 247.301 70.6508L245.766 72.4678C243.951 70.8605 242.345 70.5111 240.531 70.5111C237.599 70.5111 236.063 71.8388 236.063 73.516C236.063 75.6824 237.599 76.2414 240.81 77.08C244.509 77.9885 248.069 78.897 248.069 83.1598C247.999 87.0732 244.509 88.9601 240.461 88.9601Z" fill="white"/>
<path d="M140.786 7.26758V49.1272H138.413V9.5737H113.494V7.26758H140.786Z" fill="white"/>
<path d="M148.045 0V49.1274H145.672V2.30612H113.494V0H148.045Z" fill="white"/>
<path d="M133.528 46.8213V49.1274H98.9766V0H101.28V46.8213H133.528Z" fill="white"/>
<path d="M133.528 39.5535V41.8596H106.236V0H108.54V39.5535H133.528Z" fill="white"/>
</g>
<defs>
<clipPath id="clip0">
<rect width="248" height="113" fill="white"/>
</clipPath>
</defs>
</svg>
