<svg width="143" height="22" viewBox="0 0 143 22" fill="none" xmlns="http://www.w3.org/2000/svg">
<path d="M35.5134 13.3797H31.1896L30.2929 15.3825H29.1719L33.3355 6.30713H33.4316L37.5952 15.3825H36.4422L35.5134 13.3797ZM31.5419 12.5347H35.1611L33.3355 8.43515L31.5419 12.5347Z" fill="#384054"/>
<path d="M41.0858 10.7501L45.0573 6.55664H46.4345L42.2709 10.7814V10.8753L46.8829 15.3816H45.3776L41.0858 10.9379V15.3816H39.9648V6.55664H41.0858V10.7501Z" fill="#384054"/>
<path d="M49.4141 6.55664H52.7129C54.7948 6.55664 55.7236 7.37029 55.7236 8.71595C55.7236 9.5609 55.3072 10.4371 54.3143 10.7188V10.7814C55.5314 10.9691 56.172 11.9706 56.172 12.9407C56.172 14.3489 55.2111 15.3816 53.0652 15.3816H49.4141V6.55664ZM52.5848 10.4058C53.9941 10.4058 54.6346 9.84255 54.6346 8.80983C54.6346 7.9023 53.9941 7.40159 52.6169 7.40159H50.535V10.4058H52.5848ZM50.535 14.5054H52.9692C54.4104 14.5054 55.051 13.8795 55.051 12.8781C55.051 11.908 54.3464 11.2821 52.8731 11.2821H50.535V14.5054Z" fill="#384054"/>
<path d="M58.9586 15.6319H58.8945V6.55655H59.9835V13.1597L66.1649 6.2749H66.2289V15.3816H65.14V8.74716L58.9586 15.6319Z" fill="#384054"/>
<path d="M71.4802 9.59219C71.4802 12.5026 71.1919 15.2565 69.1421 15.5694C69.014 15.6007 68.6297 15.5694 68.4375 15.5694V14.6306C68.6297 14.6306 68.8539 14.6619 69.046 14.6306C70.4232 14.3802 70.4232 11.4699 70.4232 9.84255V6.55664H76.4445V15.3816H75.3235V7.52677H71.4802V9.59219Z" fill="#384054"/>
<path d="M83.3945 6.36914C85.9887 6.36914 87.6542 8.15292 87.6542 10.9694C87.6542 13.7859 85.9887 15.5697 83.3945 15.5697C80.8002 15.5697 79.1348 13.7859 79.1348 10.9694C79.1668 8.15292 80.8322 6.36914 83.3945 6.36914ZM83.3945 14.5995C85.2841 14.5995 86.5012 13.1913 86.5012 10.9381C86.5012 8.68492 85.2521 7.30797 83.3945 7.30797C81.5369 7.30797 80.2878 8.68492 80.2878 10.9381C80.2878 13.1913 81.5369 14.5995 83.3945 14.5995Z" fill="#384054"/>
<path d="M91.4979 15.3816H90.377V6.55664H91.4979V10.4371H96.3341V6.55664H97.4231V15.3816H96.3341V11.3134H91.4979V15.3816Z" fill="#384054"/>
<path d="M104.758 15.3816V6.55664H105.847V14.3802H110.491V15.3816H104.758Z" fill="#384054"/>
<path d="M114.269 6.55664H113.148V15.3816H114.269V6.55664Z" fill="#384054"/>
<path d="M118.466 8.87233V15.3816H117.377V6.2749H117.441L123.622 13.0658V6.55655H124.711V15.6319H124.647L118.466 8.87233Z" fill="#384054"/>
<path d="M128.907 10.7501L132.911 6.55664H134.288L130.124 10.7814V10.8753L134.704 15.3816H133.231L128.907 10.9379V15.3816H127.818V6.55664H128.907V10.7501Z" fill="#384054"/>
<path d="M139.509 15.5697C138.42 15.5697 136.819 15.2568 136.082 14.005L136.819 13.2852C137.523 14.2867 138.644 14.5683 139.509 14.5683C140.854 14.5683 141.815 14.0676 141.815 12.9723C141.815 12.0022 141.142 11.6266 139.669 11.2824C137.78 10.813 136.338 10.4062 136.338 8.65367C136.338 7.27672 137.523 6.33789 139.541 6.33789C140.598 6.33789 141.751 6.49436 142.648 7.3706L141.943 8.18426C141.11 7.46449 140.374 7.30801 139.541 7.30801C138.196 7.30801 137.491 7.90261 137.491 8.65367C137.491 9.6238 138.196 9.87415 139.669 10.2497C141.367 10.6565 143 11.0633 143 12.9723C142.968 14.7248 141.367 15.5697 139.509 15.5697Z" fill="#384054"/>
<path d="M19.185 3.25439V21.9997H18.0961V4.28711H6.66211V3.25439H19.185Z" fill="#384054"/>
<path d="M22.5159 0V21.9999H21.427V1.03271H6.66211V0H22.5159Z" fill="#384054"/>
<path d="M15.8538 20.9672V21.9999H0V0H1.05692V20.9672H15.8538Z" fill="#384054"/>
<path d="M15.853 17.7126V18.7453H3.33008V0H4.387V17.7126H15.853Z" fill="#384054"/>
</svg>
