<svg xmlns="http://www.w3.org/2000/svg">
  <symbol id="telegram" viewBox="0 0 18 15">
    <path d="M.509 6.728c1.753-.966 3.71-1.772 5.54-2.582C9.195 2.819 12.354 1.515 15.545.3c.62-.206 1.736-.409 1.845.511-.06 1.303-.306 2.597-.475 3.892-.429 2.847-.925 5.684-1.408 8.522-.167.945-1.35 1.434-2.108.83-1.821-1.23-3.656-2.448-5.453-3.707-.59-.598-.043-1.457.483-1.885 1.5-1.477 3.09-2.733 4.51-4.287.384-.926-.748-.146-1.122.093-2.053 1.415-4.056 2.916-6.22 4.16-1.106.608-2.395.088-3.5-.252-.99-.41-2.443-.823-1.588-1.449z"/>
  </symbol>

  <symbol id="external-link" viewBox="0 0 21 20">
    <path fill-rule="evenodd" clip-rule="evenodd" d="M4.667 6A.667.667 0 004 6.667v9.166a.667.667 0 00.667.667h9.166a.666.666 0 00.667-.667v-5a1 1 0 112 0v5a2.667 2.667 0 01-2.667 2.667H4.667A2.667 2.667 0 012 15.833V6.667A2.667 2.667 0 014.667 4h5a1 1 0 110 2h-5zM12 2.5a1 1 0 011-1h5a1 1 0 011 1v5a1 1 0 11-2 0v-4h-4a1 1 0 01-1-1z"/><path fill-rule="evenodd" clip-rule="evenodd" d="M18.707 1.793a1 1 0 010 1.414L9.54 12.374a1 1 0 01-1.414-1.414l9.167-9.167a1 1 0 011.414 0z"/>
  </symbol>

  <symbol id="cross" viewBox="0 0 20 20">
    <path fill-rule="evenodd" clip-rule="evenodd" d="M3.293 3.293a1 1 0 011.414 0l12 12a1 1 0 01-1.414 1.413l-12-11.999a1 1 0 010-1.414z" /><path fill-rule="evenodd" clip-rule="evenodd" d="M3.293 16.707a1 1 0 010-1.414l12-12a1 1 0 011.414 1.415l-12 12a1 1 0 01-1.414 0z"/>
  </symbol>

  <symbol id="offer-percent" viewBox="0 0 80 83">
      <path d="M76.1429 42.5751C75.8075 41.8918 75.8075 41.1082 76.1429 40.425L79.2525 34.0923C80.9838 30.5663 79.612 26.3637 76.1296 24.5243L69.875 21.2205C69.2002 20.8642 68.7375 20.23 68.6055 19.4812L67.3822 12.5383C66.7011 8.67273 63.1092 6.07512 59.2065 6.62483L52.1958 7.61206C51.4391 7.7184 50.6909 7.47622 50.1419 6.94758L45.0531 2.04675C42.2195 -0.682169 37.7806 -0.682331 34.9472 2.04675L29.8582 6.94807C29.3091 7.47686 28.5608 7.71857 27.8043 7.61255L20.7936 6.62531C16.8896 6.07528 13.299 8.67322 12.6178 12.5388L11.3946 19.4814C11.2625 20.2303 10.7999 20.8644 10.1253 21.2208L3.87066 24.5246C0.388207 26.3638 -0.983541 30.5668 0.747754 34.0928L3.85715 40.4254C4.19259 41.1087 4.19259 41.8923 3.85715 42.5754L0.747591 48.908C-0.983704 52.434 0.388044 56.6366 3.8705 58.476L10.1251 61.7798C10.7999 62.1361 11.2625 62.7703 11.3946 63.519L12.6178 70.4619C13.2379 73.981 16.269 76.4489 19.7526 76.4486C20.0957 76.4486 20.4438 76.4246 20.7938 76.3753L27.8044 75.3881C28.5605 75.2812 29.3092 75.5239 29.8583 76.0526L34.9472 80.9534C36.3642 82.318 38.1818 83.0002 40 83C41.8178 82.9998 43.6365 82.3177 45.0529 80.9534L50.1419 76.0526C50.691 75.5239 51.4394 75.2824 52.1958 75.3881L59.2065 76.3753C63.111 76.9252 66.7011 74.3274 67.3822 70.4618L68.6057 63.5192C68.7377 62.7703 69.2003 62.1363 69.875 61.7798L76.1296 58.476C79.612 56.6368 80.9838 52.4338 79.2525 48.9078L76.1429 42.5751ZM30.3827 19.9583C35.2437 19.9583 39.1986 23.8954 39.1986 28.7347C39.1986 33.5739 35.2437 37.511 30.3827 37.511C25.5216 37.511 21.5668 33.5739 21.5668 28.7347C21.5668 23.8954 25.5216 19.9583 30.3827 19.9583ZM25.8323 58.9889C25.3629 59.4563 24.7475 59.6901 24.1323 59.6901C23.5171 59.6901 22.9016 59.4565 22.4323 58.9889C21.4933 58.0542 21.4933 56.5387 22.4323 55.604L54.1676 24.011C55.1064 23.0763 56.6289 23.0763 57.5678 24.011C58.5068 24.9457 58.5068 26.4613 57.5678 27.396L25.8323 58.9889ZM49.6171 63.042C44.7561 63.042 40.8012 59.1049 40.8012 54.2656C40.8012 49.4264 44.7561 45.4893 49.6171 45.4893C54.4781 45.4893 58.433 49.4264 58.433 54.2656C58.433 59.1049 54.4781 63.042 49.6171 63.042Z" />
      <path d="M49.6171 50.2764C47.4076 50.2764 45.6098 52.0659 45.6098 54.2655C45.6098 56.4651 47.4074 58.2546 49.6171 58.2546C51.8267 58.2546 53.6242 56.4651 53.6242 54.2655C53.6242 52.0659 51.8267 50.2764 49.6171 50.2764Z" />
      <path d="M30.3825 24.7451C28.1729 24.7451 26.3754 26.5346 26.3754 28.7343C26.3754 30.9339 28.1729 32.7236 30.3825 32.7236C32.592 32.7236 34.3898 30.9341 34.3898 28.7343C34.3896 26.5348 32.592 24.7451 30.3825 24.7451Z" />
  </symbol>

  <symbol id="maze" viewBox="0 0 64 64">
    <path d="M62.713 0H1.286C.576 0 0 .576 0 1.286v61.428c0 .71.576 1.285 1.286 1.285H38.75a1.286 1.286 0 000-2.572H2.572V31.456h17.937v12.328a1.286 1.286 0 002.572 0V16.858a1.286 1.286 0 00-2.572 0v12.025H2.572V2.572h34.893v16.102c0 .71.575 1.285 1.285 1.285h13.6a1.286 1.286 0 000-2.571H40.036V2.572h21.391v39.926H38.75a1.286 1.286 0 000 2.572h22.677v16.358H52.35a1.286 1.286 0 000 2.572h10.363c.71 0 1.286-.576 1.286-1.286V1.286c0-.71-.576-1.286-1.286-1.286z"/>
  </symbol>

  <symbol id="bricklaying" viewBox="0 0 64 64">
    <path d="M1.067 64h61.866A1.067 1.067 0 0064 62.933V45.212a6.155 6.155 0 00-8.319-5.765l-2.927 1.098a3.22 3.22 0 01-3.687-1.077 5.36 5.36 0 00-4.268-2.135H42.87l1.825-3.805a1.066 1.066 0 00-.008-.938l-4.266-8.534a1.067 1.067 0 00-.954-.59H35.2v-5.333a1.067 1.067 0 001.067-1.066v-12.8a4.267 4.267 0 10-8.534 0v5.525l-.7.14c-2.315.46-4.706.364-6.976-.282a11.104 11.104 0 00-8.036.747 5.44 5.44 0 01-4.842 0A7.587 7.587 0 003.803 9.6H1.067A1.067 1.067 0 000 10.667v52.266A1.067 1.067 0 001.067 64zm33.066-48h-4.266V6.4h4.266V16zM28.8 19.2v4.267h-4.267a1.067 1.067 0 00-.954.59L19.607 32H19.2V19.2h9.6zM10.667 46.933v-12.8h8.925l6.063 12.8H10.667zm-8.534 0v-12.8h6.4v12.8h-6.4zM17.067 32H2.133V19.2h14.934V32zM2.133 49.067h14.934v12.8H2.133v-12.8zm17.067 0h7.465l1.346 2.841a4.357 4.357 0 007.942-.148l1.291-2.693H44.8v12.8H19.2v-12.8zm42.667 12.8H46.933v-12.8h14.934v12.8zm-17.068-22.4a3.217 3.217 0 012.562 1.28 5.365 5.365 0 006.142 1.795l2.927-1.098a4.024 4.024 0 015.437 3.768v1.721h-23.6l3.58-7.466H44.8zM38.807 25.6l3.739 7.477-8.527 17.782a2.223 2.223 0 01-4.08.136l-8.486-17.916 3.74-7.479H28.8v5.333a3.2 3.2 0 106.4 0V25.6h3.607zm-5.74 5.333a1.066 1.066 0 11-2.134 0v-12.8h2.134v12.8zM32 2.133a2.136 2.136 0 012.133 2.134h-4.266A2.136 2.136 0 0132 2.133zm-28.197 9.6c.84.001 1.67.197 2.422.572a7.583 7.583 0 006.75 0 8.977 8.977 0 016.496-.604c2.597.74 5.332.85 7.98.323l.282-.056v5.099h-25.6v-5.334h1.67z" />
  </symbol>

  <symbol id="palette" viewBox="0 0 64 58">
    <path d="M16.701 38.617a5.2 5.2 0 00-3.228-1.131c-1.586 0-3.063.71-4.052 1.95a5.172 5.172 0 00-1.103 3.823 5.164 5.164 0 001.926 3.488 5.198 5.198 0 003.227 1.131 5.155 5.155 0 004.053-1.953 5.166 5.166 0 001.102-3.819 5.166 5.166 0 00-1.925-3.49zm-1.018 5.815a2.811 2.811 0 01-2.212 1.063 2.8 2.8 0 01-1.762-.617 2.793 2.793 0 01-1.043-1.886 2.813 2.813 0 012.807-3.123 2.8 2.8 0 011.763.617c.588.47.959 1.14 1.042 1.887a2.783 2.783 0 01-.595 2.059zM37.476 26.411c.78 0 1.533-.172 2.241-.513a5.156 5.156 0 002.65-2.978 5.17 5.17 0 00-.23-3.961 5.215 5.215 0 00-4.674-2.94c-.78 0-1.536.172-2.244.513a5.15 5.15 0 00-2.65 2.976 5.167 5.167 0 00.23 3.963 5.224 5.224 0 004.677 2.94zm-2.677-6.117a2.792 2.792 0 011.437-1.611 2.81 2.81 0 011.227-.282A2.84 2.84 0 0140.012 20c.324.672.367 1.43.124 2.134a2.797 2.797 0 01-1.437 1.613c-.387.187-.798.28-1.223.28a2.85 2.85 0 01-2.554-1.6 2.783 2.783 0 01-.123-2.133zM24.62 17.989c.38.086.768.13 1.155.13 2.432 0 4.51-1.66 5.054-4.037a5.18 5.18 0 00-.661-3.91 5.153 5.153 0 00-3.244-2.312 5.208 5.208 0 00-1.161-.132 5.157 5.157 0 00-5.048 4.039 5.167 5.167 0 00.657 3.909 5.146 5.146 0 003.247 2.313zM23.017 12.3a2.801 2.801 0 012.745-2.19c.212 0 .427.025.638.073a2.806 2.806 0 011.767 1.258 2.79 2.79 0 01.357 2.107 2.84 2.84 0 01-2.75 2.187c-.212 0-.425-.025-.636-.072a2.799 2.799 0 01-1.767-1.257 2.784 2.784 0 01-.354-2.106zM15.231 20.961a5.173 5.173 0 001.923-3.49 5.171 5.171 0 00-1.101-3.82 5.166 5.166 0 00-4.055-1.95c-1.166 0-2.311.4-3.226 1.128a5.16 5.16 0 00-1.924 3.485A5.175 5.175 0 007.95 20.14a5.163 5.163 0 004.056 1.952 5.186 5.186 0 003.224-1.13zm-5.439-2.315a2.793 2.793 0 01-.596-2.065 2.789 2.789 0 011.04-1.882 2.803 2.803 0 011.762-.615 2.82 2.82 0 012.214 1.06 2.79 2.79 0 01.594 2.06 2.8 2.8 0 01-1.042 1.89 2.788 2.788 0 01-1.757.615 2.817 2.817 0 01-2.215-1.063z" /><path d="M63.548 9.3c-.204-.208-.568-.455-1.143-.455-.674 0-2.465 0-13.338 9.333-.219.188-.44.378-.66.57A29.311 29.311 0 0038.652 5.78C33.608 2 27.603 0 21.285 0h-.005c-4.263 0-9.446 1.503-13.526 3.923C2.753 6.888 0 10.855 0 15.09c.002 5.114 2.86 7.253 5.159 8.971 1.873 1.402 3.353 2.509 3.354 4.935 0 2.426-1.479 3.532-3.351 4.932-2.297 1.718-5.156 3.855-5.154 8.97 0 4.235 2.756 8.203 7.759 11.171C11.85 56.493 17.035 58 21.299 58h.009c7.739 0 15.014-3.013 20.486-8.485 5.402-5.402 8.407-12.562 8.486-20.192a289.575 289.575 0 005.233-6.17c2.776-3.374 4.91-6.158 6.343-8.274 1.9-2.803 2.731-4.522 1.692-5.579zM40.131 47.822c-5.027 5.027-11.71 7.795-18.823 7.795H21.3c-7.62-.003-18.927-5.344-18.93-12.719 0-3.914 2.04-5.44 4.199-7.055 2.019-1.51 4.307-3.22 4.306-6.847-.001-3.625-2.29-5.337-4.31-6.848-2.16-1.617-4.201-3.143-4.202-7.058-.001-4.529 4.127-7.653 6.589-9.113 3.681-2.183 8.52-3.594 12.328-3.594h.005c5.806.002 11.325 1.838 15.958 5.31a26.884 26.884 0 019.253 12.722c-5.124 4.513-10.673 9.717-14.806 13.9-6.864.895-7.799 5.51-8.482 8.9-.582 2.886-.96 4.281-3.169 4.46a1.185 1.185 0 00-1.072 1.002c-.085.544.21 1.076.715 1.287.142.06 3.52 1.451 7.466 1.452h.002c2.75 0 5.11-.673 7.012-2 2.344-1.633 3.934-4.224 4.732-7.699 2.7-2.756 5.786-6.078 8.836-9.501-.702 5.893-3.338 11.345-7.6 15.606zm-3.61-6.33c-1.252 5.004-4.402 7.54-9.371 7.54h-.002c-1.31 0-2.565-.18-3.62-.405 1.26-1.296 1.654-3.247 1.995-4.937.649-3.22 1.263-6.266 6.285-6.99l4.713 4.791zM52.835 22.67C48.152 28.3 42.483 34.62 37.817 39.425l-.723-.735-3.187-3.24c4.23-4.25 9.658-9.315 14.722-13.748.59-.517 1.177-1.027 1.755-1.525 5.877-5.056 8.957-7.256 10.528-8.213-.938 1.594-3.1 4.724-8.077 10.706z"/>
  </symbol>

  <symbol id="todo" viewBox="0 0 64 64">
    <g clip-path="url(#clip0)" stroke="#0E0F12"><path d="M39.199 21.372h-10.18a.937.937 0 010-1.875H39.2a.937.937 0 010 1.875zM49.378 16.56H29.02a.937.937 0 010-1.875h20.358a.937.937 0 110 1.875zM39.198 37.082H29.02a.937.937 0 010-1.875h10.178a.937.937 0 010 1.875zM49.377 32.27H29.02a.937.937 0 010-1.875h20.357a.937.937 0 010 1.875zM39.198 52.793H29.02a.937.937 0 010-1.875h10.178a.937.937 0 110 1.875zM49.377 47.981H29.02a.937.937 0 010-1.875h20.357a.937.937 0 010 1.875zM40.105 8.831h-16.21a2.798 2.798 0 01-2.794-2.794V2.795A2.798 2.798 0 0123.895 0h16.21a2.798 2.798 0 012.794 2.795v3.242a2.797 2.797 0 01-2.794 2.794zm-16.21-6.956a.92.92 0 00-.92.92v3.242c0 .507.413.92.92.92h16.21a.92.92 0 00.919-.92V2.795a.92.92 0 00-.92-.92H23.896z" stroke-width=".2"/><path d="M20.367 38.34h-4.166a2.52 2.52 0 01-2.516-2.518v-4.166a2.52 2.52 0 012.516-2.517h4.166a2.52 2.52 0 012.517 2.517v4.166a2.52 2.52 0 01-2.517 2.517zm-4.166-7.326a.643.643 0 00-.641.642v4.166c0 .354.288.642.641.642h4.166a.643.643 0 00.642-.642v-4.166a.643.643 0 00-.642-.642h-4.166z" stroke-width=".1"/><path d="M51.94 64H12.06A4.065 4.065 0 018 59.937v-52.4a4.066 4.066 0 014.06-4.06h9.278a.937.937 0 010 1.875H12.06c-1.205 0-2.185.98-2.185 2.186v52.399c0 1.205.98 2.186 2.185 2.186h39.88c1.205 0 2.185-.98 2.185-2.186v-52.4c0-1.205-.98-2.185-2.185-2.185h-9.506a.937.937 0 010-1.875h9.506A4.065 4.065 0 0156 7.538v52.4a4.066 4.066 0 01-4.06 4.061z" stroke-width=".2"/><path d="M21.9 16.224a.81.81 0 00-1.12 0L17.396 19.5l-1.043-1.01a.81.81 0 00-1.12 0c-.31.3-.31.785 0 1.084l1.603 1.55c.154.15.357.225.56.225a.803.803 0 00.56-.224l3.945-3.817c.31-.3.31-.785 0-1.084zM21.9 47.224a.81.81 0 00-1.12 0L17.396 50.5l-1.043-1.01a.81.81 0 00-1.12 0c-.31.3-.31.785 0 1.084l1.603 1.55c.154.15.357.225.56.225a.803.803 0 00.56-.224l3.945-3.817c.31-.3.31-.785 0-1.084z" stroke-width=".2"/></g><defs><clipPath id="clip0"><path d="M0 0h64v64H0z"/></clipPath></defs>
  </symbol>

  <symbol id="analytics" viewBox="0 0 64 64">
    <path d="M33.1441 29.8662C33.4433 29.8662 31.7229 30.4635 59.5593 20.1383C59.8263 20.0401 60.0429 19.8395 60.1613 19.5813C60.2796 19.323 60.2899 19.0282 60.1898 18.7624C55.9596 7.5034 45.1905 0.0326146 33.1441 0C32.5539 0 32.0755 0.477555 32.0755 1.06665V28.7995C32.0755 29.3886 32.5539 29.8662 33.1441 29.8662ZM34.2127 2.1333C44.5868 2.58154 53.7714 8.9622 57.7962 18.517L34.2127 27.2636V2.1333Z" />
    <path d="M57.7211 35.1995C57.7323 31.7628 57.1243 28.3521 55.9259 25.1303C55.8215 24.8617 55.6127 24.6467 55.347 24.5342C55.0814 24.4217 54.7814 24.4213 54.5154 24.533L29.9381 33.6635V7.46656C29.9381 6.87746 29.4597 6.39991 28.8695 6.39991C17.1863 6.39303 6.65224 13.42 2.18908 24.1976C-2.27408 34.9752 0.214819 47.3757 8.49288 55.6052C16.7709 63.8348 29.2039 66.2687 39.9827 61.7697C47.3011 65.9686 56.6276 63.7824 61.3086 56.7707C65.9896 49.7591 64.4207 40.3252 57.7211 35.1995ZM27.8009 8.53321V33.8555L3.14882 28.0636C6.20555 16.8741 16.19 8.96407 27.8009 8.53321ZM2.64658 30.1435L27.4803 35.9674L19.2523 60.0311C7.20831 55.3838 0.21822 42.8028 2.64658 30.1435ZM21.2292 60.7244L29.7137 36.0208L54.291 26.9116C55.0325 29.1504 55.4674 31.479 55.584 33.8341C48.3185 30.0006 39.3255 32.273 34.7625 39.0956C30.1995 45.9181 31.5449 55.0801 37.8776 60.3084C32.5171 62.2292 26.6792 62.3751 21.2292 60.7244ZM48.1039 61.8657C40.4318 61.8657 34.2124 55.6575 34.2124 47.9993C34.2124 40.341 40.4318 34.1328 48.1039 34.1328C55.776 34.1328 61.9954 40.341 61.9954 47.9993C61.9954 51.6769 60.5319 55.2039 57.9267 57.8043C55.3215 60.4048 51.7882 61.8657 48.1039 61.8657Z" />
    <path d="M55.2744 40.8419C55.0738 40.64 54.8007 40.5264 54.5158 40.5264C54.2308 40.5264 53.9577 40.64 53.7571 40.8419L40.9341 53.6417C40.6259 53.9468 40.5332 54.4078 40.6997 54.808C40.8662 55.2083 41.2587 55.4682 41.6928 55.4656C41.9768 55.4673 42.2498 55.356 42.4515 55.1563L55.2744 42.3565C55.4767 42.1562 55.5905 41.8836 55.5905 41.5992C55.5905 41.3148 55.4767 41.0422 55.2744 40.8419Z" />
    <path d="M45.9667 42.6658C45.9667 40.8985 44.5315 39.4658 42.761 39.4658C40.9905 39.4658 39.5553 40.8985 39.5553 42.6658C39.5553 44.4331 40.9905 45.8657 42.761 45.8657C44.5315 45.8657 45.9667 44.4331 45.9667 42.6658ZM41.6924 42.6658C41.6924 42.0767 42.1708 41.5991 42.761 41.5991C43.3512 41.5991 43.8296 42.0767 43.8296 42.6658C43.8296 43.2549 43.3512 43.7324 42.761 43.7324C42.1708 43.7324 41.6924 43.2549 41.6924 42.6658Z" />
    <path d="M53.4464 50.1328C51.6759 50.1328 50.2407 51.5655 50.2407 53.3328C50.2407 55.1 51.6759 56.5327 53.4464 56.5327C55.2169 56.5327 56.6521 55.1 56.6521 53.3328C56.6521 51.5655 55.2169 50.1328 53.4464 50.1328ZM53.4464 54.3994C52.8562 54.3994 52.3778 53.9219 52.3778 53.3328C52.3778 52.7437 52.8562 52.2661 53.4464 52.2661C54.0366 52.2661 54.515 52.7437 54.515 53.3328C54.515 53.9219 54.0366 54.3994 53.4464 54.3994Z" />
  </symbol>

  <symbol id="cal" viewBox="0 0 64 64">
    <path d="M58.666 6.4h-5.333V4.267a4.267 4.267 0 00-8.533 0V6.4h-8.533V4.267a4.267 4.267 0 10-8.534 0V6.4H19.2V4.267a4.267 4.267 0 10-8.533 0V6.4H5.333A5.333 5.333 0 000 11.733V54.4a5.333 5.333 0 005.333 5.333h34.861a1.066 1.066 0 100-2.133H5.334a3.21 3.21 0 01-3.2-3.2V21.333h59.733v29.662a1.066 1.066 0 102.133 0V11.733A5.333 5.333 0 0058.666 6.4zM46.933 4.267a2.133 2.133 0 114.267 0v6.4a2.133 2.133 0 11-4.267 0v-6.4zm-17.066 0a2.133 2.133 0 114.266 0v6.4a2.133 2.133 0 11-4.266 0v-6.4zm-17.067 0a2.133 2.133 0 114.267 0v6.4a2.134 2.134 0 01-4.267 0v-6.4zM61.867 19.2H2.133v-7.467a3.21 3.21 0 013.2-3.2h5.334v2.134a4.267 4.267 0 008.533 0V8.533h8.533v2.134a4.267 4.267 0 008.534 0V8.533H44.8v2.134a4.267 4.267 0 108.533 0V8.533h5.334a3.21 3.21 0 013.2 3.2V19.2z" /><path d="M29.867 28.8a2.133 2.133 0 00-2.134-2.133h-4.266a2.134 2.134 0 00-2.134 2.133V32a2.133 2.133 0 002.134 2.134h4.266A2.133 2.133 0 0029.867 32v-3.2zm-6.4 3.2v-3.2h4.266V32h-4.266zM17.067 28.8a2.133 2.133 0 00-2.134-2.133h-4.266A2.134 2.134 0 008.533 28.8V32a2.133 2.133 0 002.134 2.134h4.266A2.133 2.133 0 0017.067 32v-3.2zm-6.4 3.2v-3.2h4.266V32h-4.266zM53.333 34.134A2.133 2.133 0 0055.467 32v-3.2a2.133 2.133 0 00-2.134-2.133h-4.266a2.134 2.134 0 00-2.134 2.133V32a2.133 2.133 0 002.134 2.134h4.266zM49.067 28.8h4.266V32h-4.266v-3.2zM29.867 38.4a2.133 2.133 0 00-2.134-2.133h-4.266a2.134 2.134 0 00-2.134 2.133v3.2a2.133 2.133 0 002.134 2.133h4.266a2.133 2.133 0 002.134-2.133v-3.2zm-6.4 3.2v-3.2h4.266v3.2h-4.266zM17.067 38.4a2.133 2.133 0 00-2.134-2.133h-4.266A2.134 2.134 0 008.533 38.4v3.2a2.133 2.133 0 002.134 2.133h4.266a2.133 2.133 0 002.134-2.133v-3.2zm-6.4 3.2v-3.2h4.266v3.2h-4.266zM27.733 45.867h-4.266A2.134 2.134 0 0021.333 48v3.2a2.133 2.133 0 002.134 2.133h4.266a2.133 2.133 0 002.134-2.133V48a2.133 2.133 0 00-2.134-2.133zM23.467 51.2V48h4.266v3.2h-4.266zM36.267 34.134h4.267A2.133 2.133 0 0042.667 32v-3.2a2.133 2.133 0 00-2.133-2.133h-4.267a2.134 2.134 0 00-2.133 2.133V32a2.133 2.133 0 002.133 2.134zm0-5.334h4.267V32h-4.267v-3.2zM36.267 43.733h3.258c.566 0 1.205-1.165 1.605-1.565.4-.4 1.537-1.31 1.537-1.877V38.4a2.133 2.133 0 00-2.133-2.133h-4.267a2.134 2.134 0 00-2.133 2.133v3.2a2.133 2.133 0 002.133 2.133zm0-5.333h4.267v3.2h-4.267v-3.2zM14.933 45.867h-4.266A2.134 2.134 0 008.533 48v3.2a2.133 2.133 0 002.134 2.133h4.266a2.133 2.133 0 002.134-2.133V48a2.133 2.133 0 00-2.134-2.133zM10.667 51.2V48h4.266v3.2h-4.266z" /><path d="M50.133 36.267A13.867 13.867 0 1064 50.133a13.882 13.882 0 00-13.867-13.866zm0 25.6a11.733 11.733 0 1111.734-11.734 11.748 11.748 0 01-11.734 11.733z" /><path d="M56.297 45.662L48 53.958l-3.77-3.771a1.067 1.067 0 00-1.509 1.508l4.525 4.526a1.067 1.067 0 001.508 0l9.05-9.051a1.067 1.067 0 00-1.507-1.508z" />
  </symbol>

  <symbol id="special-offer" viewBox="0 0 80 83">
    <path d="M76.143 42.575a2.423 2.423 0 010-2.15l3.11-6.333c1.73-3.526.359-7.728-3.123-9.568l-6.255-3.303a2.433 2.433 0 01-1.27-1.74l-1.223-6.943c-.68-3.865-4.273-6.463-8.176-5.913l-7.01.987a2.45 2.45 0 01-2.054-.664l-5.089-4.901a7.26 7.26 0 00-10.106 0l-5.089 4.901c-.549.529-1.297.77-2.054.665l-7.01-.988c-3.904-.55-7.495 2.048-8.176 5.914l-1.223 6.942a2.434 2.434 0 01-1.27 1.74l-6.254 3.304a7.19 7.19 0 00-3.123 9.568l3.11 6.332a2.423 2.423 0 010 2.15l-3.11 6.333c-1.732 3.526-.36 7.729 3.122 9.568l6.255 3.304c.675.356 1.137.99 1.27 1.739l1.223 6.943a7.224 7.224 0 007.135 5.987c.343 0 .69-.024 1.04-.074l7.011-.987a2.45 2.45 0 012.054.665l5.09 4.9a7.261 7.261 0 0010.105 0l5.089-4.9a2.453 2.453 0 012.054-.665l7.01.987c3.905.55 7.495-2.048 8.176-5.913l1.224-6.943a2.433 2.433 0 011.269-1.74l6.255-3.303a7.19 7.19 0 003.123-9.568l-3.11-6.333zm-45.76-22.617c4.86 0 8.816 3.937 8.816 8.777 0 4.839-3.955 8.776-8.816 8.776-4.861 0-8.816-3.937-8.816-8.776 0-4.84 3.955-8.777 8.816-8.777zm-4.55 39.03a2.402 2.402 0 01-1.7.702c-.616 0-1.231-.233-1.7-.701a2.386 2.386 0 010-3.385l31.735-31.593a2.412 2.412 0 013.4 0c.939.935.939 2.45 0 3.385L25.832 58.989zm23.784 4.054c-4.86 0-8.816-3.937-8.816-8.776 0-4.84 3.955-8.777 8.816-8.777 4.861 0 8.816 3.937 8.816 8.777 0 4.839-3.955 8.776-8.816 8.776z" />
  </symbol>

  <symbol id="pedestrian" viewBox="0 0 8 12">
    <path d="M3.73 2.304A1.152 1.152 0 103.73 0a1.152 1.152 0 000 2.304zM6.9 5.155c-.949-.55-1.727-1.291-2.382-2.164-.412-.579-1.5-.549-1.943-.018A12.709 12.709 0 00.878 4.978a.603.603 0 001 .67c.2-.295.425-.592.675-.888-.01.626.021 1.755.037 2.262a.975.975 0 01-.112.485c-.62 1.186-1.018 2.308-1.421 3.681a.633.633 0 101.214.357c.372-1.266.731-2.29 1.292-3.376h.086l1.075 3.205c.26.78 1.469.375 1.208-.404L4.758 7.466a3.244 3.244 0 01-.085-.415 21.711 21.711 0 01-.082-2.155c.55.527 1.16.984 1.837 1.376.676.392 1.139-.73.472-1.117z" />
  </symbol>

  <symbol id="car" viewBox="0 0 12 12">
    <path d="M11.096 4.625l-.842-2.806A1.491 1.491 0 008.817.75H3.183c-.667 0-1.245.43-1.437 1.07L.905 4.624A1.5 1.5 0 000 6v3c0 .414.336.75.75.75v.75c0 .414.336.75.75.75h.75A.75.75 0 003 10.5v-.75h6v.75c0 .414.336.75.75.75h.75a.75.75 0 00.75-.75v-.75A.75.75 0 0012 9V6c0-.616-.373-1.144-.904-1.375zM3.183 2.25h5.634l.675 2.25H2.508l.675-2.25zM3 7.875a.75.75 0 110-1.5.75.75 0 010 1.5zm6 0a.75.75 0 110-1.5.75.75 0 010 1.5z" />
  </symbol>

  <symbol id="chevron-left" viewBox="0 0 8 14">
    <path fill-rule="evenodd" clip-rule="evenodd" d="M7.707.293a1 1 0 010 1.414L2.414 7l5.293 5.293a1 1 0 11-1.414 1.414l-6-6a1 1 0 010-1.414l6-6a1 1 0 011.414 0z" />
  </symbol>
  <symbol id="chevron-right" viewBox="0 0 8 14">
    <path fill-rule="evenodd" clip-rule="evenodd" d="M.293 13.707a1 1 0 010-1.414L5.586 7 .293 1.707A1 1 0 011.707.293l6 6a1 1 0 010 1.414l-6 6a1 1 0 01-1.414 0z" />
  </symbol>
  <symbol id="vk" viewBox="0 0 48 48">
    <path fill-rule="evenodd" clip-rule="evenodd" d="M24 48c13.255 0 24-10.745 24-24S37.255 0 24 0 0 10.745 0 24s10.745 24 24 24zm14.144-32.857c1.05 0 1.287.542 1.05 1.287-.37 1.708-3.443 6.239-4.395 7.642-.18.267-.285.42-.28.42-.372.61-.508.881 0 1.558.184.251.574.633 1.019 1.07.458.45.974.956 1.387 1.437 1.49 1.694 2.642 3.117 2.947 4.099.27.982-.204 1.49-1.22 1.49h-3.489c-.924 0-1.401-.53-2.417-1.662-.435-.486-.97-1.081-1.682-1.793-2.066-1.998-2.98-2.27-3.489-2.27-.711 0-.914.17-.914 1.186v3.15c0 .848-.271 1.356-2.507 1.356-3.692 0-7.791-2.236-10.67-6.403-4.336-6.097-5.522-10.704-5.522-11.619 0-.508.17-.982 1.186-.982h3.523c.88 0 1.219.373 1.558 1.355 1.727 4.98 4.607 9.35 5.792 9.35.44 0 .644-.204.644-1.322v-5.149c-.084-1.463-.593-2.1-.971-2.574-.234-.293-.418-.523-.418-.847 0-.407.339-.813.88-.813h5.488c.746 0 1.017.406 1.017 1.287v6.944c0 .746.304 1.017.542 1.017.44 0 .813-.271 1.626-1.084 2.506-2.812 4.302-7.148 4.302-7.148.237-.508.643-.982 1.524-.982h3.49z" />
  </symbol>
  <symbol id="instagram" viewBox="0 0 48 48">
    <path fill-rule="evenodd" clip-rule="evenodd" d="M24 0C10.745 0 0 10.745 0 24s10.745 24 24 24 24-10.745 24-24S37.255 0 24 0zm-5.277 11.278c1.366-.063 1.802-.078 5.278-.078h-.004c3.478 0 3.912.016 5.278.078 1.362.062 2.293.278 3.109.594a6.256 6.256 0 012.267 1.476 6.283 6.283 0 011.477 2.268c.315.814.53 1.744.595 3.107.061 1.365.077 1.801.077 5.277 0 3.477-.016 3.912-.077 5.277-.064 1.363-.28 2.293-.595 3.107a6.283 6.283 0 01-1.477 2.267 6.263 6.263 0 01-2.266 1.478c-.815.316-1.746.532-3.108.594-1.366.062-1.8.078-5.277.078-3.476 0-3.912-.016-5.278-.078-1.362-.062-2.293-.278-3.107-.594a6.268 6.268 0 01-2.267-1.478 6.27 6.27 0 01-1.476-2.267c-.316-.814-.532-1.744-.595-3.107-.061-1.365-.077-1.8-.077-5.277 0-3.476.016-3.912.077-5.278.061-1.362.277-2.292.595-3.106a6.284 6.284 0 011.477-2.268 6.27 6.27 0 012.268-1.476c.813-.316 1.744-.532 3.106-.594z" /><path fill-rule="evenodd" clip-rule="evenodd" d="M22.853 13.506h1.148c3.418 0 3.823.012 5.173.074 1.248.057 1.925.265 2.376.44.598.232 1.023.51 1.471.958.448.448.725.875.958 1.472.175.45.384 1.128.44 2.376.062 1.35.075 1.755.075 5.17 0 3.417-.013 3.822-.074 5.171-.057 1.248-.266 1.926-.441 2.376a3.958 3.958 0 01-.958 1.47 3.959 3.959 0 01-1.47.958c-.451.176-1.13.384-2.377.441-1.35.062-1.755.075-5.173.075s-3.823-.014-5.172-.075c-1.248-.057-1.925-.266-2.377-.441a3.965 3.965 0 01-1.472-.957 3.968 3.968 0 01-.958-1.472c-.175-.45-.384-1.128-.44-2.376-.062-1.35-.074-1.754-.074-5.173 0-3.418.012-3.82.073-5.17.058-1.248.266-1.926.441-2.377.232-.597.51-1.024.958-1.472a3.972 3.972 0 011.472-.958c.451-.176 1.129-.384 2.377-.441 1.18-.053 1.638-.07 4.024-.072v.003zm7.98 2.125a1.536 1.536 0 100 3.072 1.536 1.536 0 000-3.073zm-13.405 8.368a6.574 6.574 0 1113.147 0 6.574 6.574 0 01-13.147 0z" /><path d="M24.001 19.733a4.267 4.267 0 110 8.534 4.267 4.267 0 010-8.534z" />
  </symbol>
  <symbol id="facebook" viewBox="0 0 48 48">
    <path d="M48 24C48 10.744 37.256 0 24 0S0 10.744 0 24c0 11.981 8.775 21.91 20.25 23.71V30.936h-6.094V24h6.094v-5.288c0-6.014 3.581-9.337 9.066-9.337 2.625 0 5.372.469 5.372.469v5.906h-3.029c-2.98 0-3.909 1.852-3.909 3.75V24h6.656l-1.064 6.938H27.75v16.771C39.225 45.91 48 35.981 48 24z" />
  </symbol>

  <symbol id="arrow-up" viewBox="0 0 16 16">
    <path fill-rule="evenodd" clip-rule="evenodd" d="M8 1.166a1 1 0 011 1v11.667a1 1 0 11-2 0V2.166a1 1 0 011-1z" fill="#384054"/><path fill-rule="evenodd" clip-rule="evenodd" d="M7.293 1.459a1 1 0 011.414 0l5.834 5.833a1 1 0 01-1.414 1.414L8 3.58 2.874 8.706A1 1 0 011.46 7.292L7.293 1.46z" />
  </symbol>

  <symbol id="tel" viewBox="0 0 18 18">
    <path d="M17.333 13.1v2.5a1.667 1.667 0 01-1.816 1.667 16.492 16.492 0 01-7.192-2.559 16.251 16.251 0 01-5-5A16.492 16.492 0 01.767 2.483 1.667 1.667 0 012.425.667h2.5A1.667 1.667 0 016.592 2.1c.105.8.3 1.586.583 2.342A1.667 1.667 0 016.8 6.2L5.742 7.258a13.334 13.334 0 005 5L11.8 11.2a1.667 1.667 0 011.758-.375c.756.282 1.542.478 2.342.583a1.666 1.666 0 011.433 1.692z" />
  </symbol>

  <symbol id="building" viewBox="0 0 32 32">
    <path d="M31.063 30.125h-.938V4.687a.937.937 0 00-.754-.919L10.558.018a.937.937 0 00-1.12.92v14.124H5.624V8.5a.938.938 0 00-1.875 0v6.563h-.938a.937.937 0 00-.937.937v14.125H.937a.937.937 0 100 1.875h30.125a.938.938 0 000-1.875zM11.313 2.08L28.25 5.457v24.668h-5.688v-2.032a4.695 4.695 0 003.75-4.593c0-2.469-1.935-6.563-4.687-6.563-2.744 0-4.688 4.092-4.688 6.563a4.696 4.696 0 003.75 4.593v2.032h-5.625V16a.938.938 0 00-.937-.938h-2.813V2.08zm10.312 24.233a2.816 2.816 0 01-2.813-2.813c0-1.76 1.485-4.688 2.813-4.688 1.339 0 2.813 2.94 2.813 4.688a2.816 2.816 0 01-2.813 2.813zM3.75 16.938h9.438v13.187H3.75V16.937z" /><path d="M6.563 20.688h3.812a.938.938 0 000-1.875H6.562a.937.937 0 100 1.875zM10.375 22.563H6.562a.937.937 0 100 1.875h3.813a.938.938 0 000-1.875zM10.375 26.313H6.562a.937.937 0 100 1.875h3.813a.938.938 0 000-1.875zM14.125 7.563h3.75a.938.938 0 000-1.875h-3.75a.937.937 0 100 1.875zM17.875 11.313a.938.938 0 000-1.876h-3.75a.937.937 0 100 1.876h3.75zM21.625 11.313h3.75a.938.938 0 000-1.876h-3.75a.937.937 0 100 1.876zM21.625 15.063h3.75a.938.938 0 000-1.876h-3.75a.937.937 0 100 1.876z"/>
  </symbol>

  <symbol id="file" viewBox="0 0 16 20">
    <path d="M2 0C.9 0 .01.9.01 2L0 18c0 1.1.89 2 1.99 2H14c1.1 0 2-.9 2-2V6l-6-6H2zm7 7V1.5L14.5 7H9z" />
  </symbol>
</svg>


