<svg
  width="67"
  height="69"
  viewBox="0 0 67 69"
  fill="none"
  xmlns="http://www.w3.org/2000/svg"
>
  <g filter="url(#filter0_d)">
    <path
      d="M57 29.5C57 16.5213 46.4787 6 33.5 6C20.5213 6 10 16.5213 10 29.5C10 42.4787 20.5213 53 33.5 53C46.4787 53 57 42.4787 57 29.5Z"
      fill="#FF3333"
    />
  </g>
  <path
    d="M20.1668 48.12C16.3084 43.8092 23.9241 39 29.7095 39H37.2905C43.0759 39 50.6916 43.8092 46.8332 48.12C45.1139 50.0408 43.2959 50.8153 40.3715 51.4282C36.9338 52.1488 33.7248 54.3946 33.5062 57.9002L33.5 58L33.4938 57.9002C33.2752 54.3946 30.0662 52.1488 26.6285 51.4282C23.7041 50.8153 21.8861 50.0408 20.1668 48.12Z"
    fill="#FF3333"
  />
  <path
    d="M38 64.5C38 62.0147 35.9853 60 33.5 60C31.0147 60 29 62.0147 29 64.5C29 66.9853 31.0147 69 33.5 69C35.9853 69 38 66.9853 38 64.5Z"
    fill="white"
  />
  <path
    d="M35 64.5C35 63.6716 34.3284 63 33.5 63C32.6716 63 32 63.6716 32 64.5C32 65.3284 32.6716 66 33.5 66C34.3284 66 35 65.3284 35 64.5Z"
    fill="#FF3333"
  />
  <g clip-path="url(#clip0)">
    <path
      d="M44.3262 22.2019H38.2348V20.8167C38.2348 19.2643 37.0129 18 35.5125 18H31.4875C29.9871 18 28.7652 19.2643 28.7652 20.8167V22.2019H22.6738C22.301 22.2019 22 22.5133 22 22.8991V35.5651C22 37.4568 23.4869 39 25.3197 39H41.6848C43.5131 39 45.0045 37.4615 45.0045 35.5651V22.8991C45 22.5133 44.699 22.2019 44.3262 22.2019ZM35.0273 31.2981C35.0273 32.172 34.34 32.8785 33.5 32.8785C32.66 32.8785 31.9727 32.1673 31.9727 31.2981V29.7178H35.0273V31.2981ZM35.7012 28.3234H31.2988C30.926 28.3234 30.625 28.6348 30.625 29.0206V30.2849C26.7078 29.4064 23.7699 26.7756 23.3926 23.5916H43.6119C43.2346 26.7756 40.2967 29.4017 36.3795 30.2849V29.0206C36.375 28.6348 36.074 28.3234 35.7012 28.3234ZM30.1129 20.8167C30.1129 20.0312 30.7283 19.3944 31.4875 19.3944H35.5125C36.2717 19.3944 36.8871 20.0312 36.8871 20.8167V22.2019H30.1129V20.8167ZM43.6523 35.5651C43.6523 36.6899 42.7674 37.6056 41.6803 37.6056H25.3197C24.2326 37.6056 23.3477 36.6899 23.3477 35.5651V27.1892C23.8912 27.9934 24.592 28.7371 25.441 29.3971C26.91 30.5359 28.7023 31.326 30.652 31.7165C30.8496 33.162 32.049 34.2729 33.5 34.2729C34.951 34.2729 36.1504 33.1574 36.348 31.7165C38.2977 31.326 40.09 30.5359 41.559 29.3971C42.408 28.7417 43.1088 27.998 43.6523 27.1892V35.5651Z"
      fill="white"
    />
  </g>
  <defs>
    <filter
      id="filter0_d"
      x="0"
      y="0"
      width="67"
      height="67"
      filterUnits="userSpaceOnUse"
      color-interpolation-filters="sRGB"
    >
      <feFlood flood-opacity="0" result="BackgroundImageFix" />
      <feColorMatrix
        in="SourceAlpha"
        type="matrix"
        values="0 0 0 0 0 0 0 0 0 0 0 0 0 0 0 0 0 0 127 0"
      />
      <feOffset dy="4" />
      <feGaussianBlur stdDeviation="5" />
      <feColorMatrix
        type="matrix"
        values="0 0 0 0 1 0 0 0 0 0.2 0 0 0 0 0.2 0 0 0 0.3 0"
      />
      <feBlend
        mode="normal"
        in2="BackgroundImageFix"
        result="effect1_dropShadow"
      />
      <feBlend
        mode="normal"
        in="SourceGraphic"
        in2="effect1_dropShadow"
        result="shape"
      />
    </filter>
    <clipPath id="clip0">
      <rect width="23" height="21" fill="white" transform="translate(22 18)" />
    </clipPath>
  </defs>
</svg>
