<svg fill="none" xmlns="http://www.w3.org/2000/svg" viewBox="0 0 67 69">
  <g filter="url(#filter0_d)">
    <rect x="10" y="6" width="47" height="47" rx="23.5" fill="#F33" />
  </g>
  <path
    d="M20.1668 48.12C16.3084 43.8092 23.9241 39 29.7095 39h7.581c5.7854 0 13.4011 4.8092 9.5427 9.12-1.7193 1.9208-3.5373 2.6953-6.4617 3.3082-3.4377.7206-6.6467 2.9664-6.8653 6.472L33.5 58l-.0062-.0998c-.2186-3.5056-3.4276-5.7514-6.8653-6.472-2.9244-.6129-4.7424-1.3874-6.4617-3.3082z"
    fill="#F33"
  />
  <rect x="29" y="60" width="9" height="9" rx="4.5" fill="#fff" />
  <rect x="32" y="63" width="3" height="3" rx="1.5" fill="#F33" />
  <g clip-path="url(#clip0)" fill="#fff">
    <path
      d="M31.9436 21.4373v6.2005l-3.8949-1.9474-5.0472 2.5027V38h18.9974V21.436L36.9517 19l-5.0081 2.4373zm-3.3394 15.4496h-1.1131v-1.1132h1.1131v1.1132zm1.1132 0v-2.2263H26.378v2.2263h-2.2634v-8.0033l3.932-1.9497 3.897 1.9485v8.0045h-2.2262zm7.7919 0h-1.1132v-1.1132h1.1132v1.1132zm3.3765-14.7521v14.7521h-2.2634v-2.2263H35.283v2.2263h-2.2262V22.1335l3.8969-1.8965 3.9321 1.8978z"
    />
    <path
      d="M34.1694 23.5293h1.1132v1.1131h-1.1132v-1.1131zM38.6221 23.5293h1.1131v1.1131h-1.1131v-1.1131zM36.396 23.5293h1.1131v1.1131H36.396v-1.1131zM34.1694 25.7559h1.1132v1.1131h-1.1132v-1.1131zM36.396 25.7559h1.1131v1.1131H36.396v-1.1131zM38.6221 25.7559h1.1131v1.1131h-1.1131v-1.1131zM34.1694 27.9824h1.1132v1.1132h-1.1132v-1.1132zM38.6221 27.9824h1.1131v1.1132h-1.1131v-1.1132zM36.396 27.9824h1.1131v1.1132H36.396v-1.1132zM34.1694 30.207h1.1132v1.1132h-1.1132V30.207zM36.396 30.207h1.1131v1.1132H36.396V30.207zM38.6221 30.207h1.1131v1.1132h-1.1131V30.207zM34.1694 32.4355h1.1132v1.1132h-1.1132v-1.1132zM38.6221 32.4355h1.1131v1.1132h-1.1131v-1.1132zM36.396 32.4355h1.1131v1.1132H36.396v-1.1132zM25.2646 30.207h1.1132v1.1132h-1.1132V30.207zM27.4912 30.207h1.1131v1.1132h-1.1131V30.207zM29.7168 30.207h1.1131v1.1132h-1.1131V30.207zM25.2646 32.4355h1.1132v1.1132h-1.1132v-1.1132zM29.7168 32.4355h1.1131v1.1132h-1.1131v-1.1132zM27.4912 32.4355h1.1131v1.1132h-1.1131v-1.1132z"
    />
  </g>
  <defs>
    <clipPath id="clip0">
      <path fill="#fff" transform="translate(23 19)" d="M0 0h19v19H0z" />
    </clipPath>
    <filter
      id="filter0_d"
      x="0"
      y="0"
      width="67"
      height="67"
      filterUnits="userSpaceOnUse"
      color-interpolation-filters="sRGB"
    >
      <feFlood flood-opacity="0" result="BackgroundImageFix" />
      <feColorMatrix
        in="SourceAlpha"
        values="0 0 0 0 0 0 0 0 0 0 0 0 0 0 0 0 0 0 127 0"
      />
      <feOffset dy="4" />
      <feGaussianBlur stdDeviation="5" />
      <feColorMatrix values="0 0 0 0 1 0 0 0 0 0.2 0 0 0 0 0.2 0 0 0 0.3 0" />
      <feBlend in2="BackgroundImageFix" result="effect1_dropShadow" />
      <feBlend in="SourceGraphic" in2="effect1_dropShadow" result="shape" />
    </filter>
  </defs>
</svg>
