<svg width="67" height="69" fill="none" xmlns="http://www.w3.org/2000/svg"><g filter="url(#filter0_d)"><rect x="10" y="6" width="47" height="47" rx="23.5" fill="#FEDD75"/></g><g clip-path="url(#clip0)" fill="#242423"><path d="M30.815 22.891h-2.478V20.62a.62.62 0 00-1.24 0v2.271H24.62a.62.62 0 00-.62.62v14.87c0 .342.277.619.62.619h3.097V25.99a1.86 1.86 0 012.501-1.745l1.217.449V23.51a.62.62 0 00-.62-.62zm-4.337 13.63H25.24v-1.238h1.24v1.239zm0-2.477H25.24v-1.24h1.24v1.24zm0-2.479H25.24v-1.239h1.24v1.24zm0-2.478H25.24v-1.24h1.24v1.24zm0-2.478H25.24v-1.24h1.24v1.24z"/><path d="M29.79 25.408a.62.62 0 00-.834.581V38.38c0 .343.278.62.62.62h3.51V26.625l-3.296-1.217zm2.058 11.114h-1.24v-1.24h1.24v1.24zm0-2.479h-1.24v-1.239h1.24v1.24zm0-2.478h-1.24v-1.239h1.24v1.24zM42.38 24.13h-.619v-1.858a.62.62 0 00-.62-.62h-1.858V20.62a.62.62 0 10-1.24 0v1.032h-1.858a.62.62 0 00-.62.62v1.859h-.62a.62.62 0 00-.619.619v13.63c0 .343.278.62.62.62h7.435a.62.62 0 00.62-.62V24.75a.62.62 0 00-.62-.62zm-4.336 12.392h-1.24v-1.24h1.24v1.24zm0-2.478h-1.24v-1.24h1.24v1.24zm0-2.479h-1.24v-1.239h1.24v1.24zm0-2.478h-1.24v-1.24h1.24v1.24zm2.478 7.435h-1.24v-1.24h1.24v1.24zm0-2.478h-1.24v-1.24h1.24v1.24zm0-2.479h-1.24v-1.239h1.24v1.24zm0-2.478h-1.24v-1.24h1.24v1.24z"/></g><path d="M20.167 48.12C16.308 43.81 23.924 39 29.709 39h7.582c5.785 0 13.4 4.81 9.542 9.12-1.72 1.92-3.537 2.695-6.462 3.308-3.437.72-6.646 2.967-6.865 6.472l-.006.1-.006-.1c-.219-3.505-3.428-5.751-6.866-6.472-2.924-.613-4.742-1.387-6.461-3.308z" fill="#FEDD75"/><rect x="29" y="60" width="9" height="9" rx="4.5" fill="#fff"/><rect x="32" y="63" width="3" height="3" rx="1.5" fill="#F33"/><defs><clipPath id="clip0"><path fill="#fff" transform="translate(24 20)" d="M0 0h19v19H0z"/></clipPath><filter id="filter0_d" x="0" y="0" width="67" height="67" filterUnits="userSpaceOnUse" color-interpolation-filters="sRGB"><feFlood flood-opacity="0" result="BackgroundImageFix"/><feColorMatrix in="SourceAlpha" values="0 0 0 0 0 0 0 0 0 0 0 0 0 0 0 0 0 0 127 0"/><feOffset dy="4"/><feGaussianBlur stdDeviation="5"/><feColorMatrix values="0 0 0 0 0.766667 0 0 0 0 0.659711 0 0 0 0 0.322639 0 0 0 0.2 0"/><feBlend in2="BackgroundImageFix" result="effect1_dropShadow"/><feBlend in="SourceGraphic" in2="effect1_dropShadow" result="shape"/></filter></defs></svg>