<svg width="280" height="52" viewBox="0 0 280 52" fill="none" xmlns="http://www.w3.org/2000/svg">
<path fill-rule="evenodd" clip-rule="evenodd" d="M43.738 50.4592L27.3458 13.5649L27.3457 13.5648L27.3141 13.4935C26.8146 12.3701 25.9959 11.4149 24.9578 10.7443C23.9197 10.0737 22.707 9.71668 21.4675 9.7168H18.3339C18.2707 9.71679 18.2089 9.735 18.1559 9.76921C18.103 9.80343 18.0613 9.85216 18.0358 9.90947L0.0195837 50.4592V50.4593C0.00406618 50.4944 -0.00239261 50.5327 0.000790982 50.5708C0.00397457 50.6089 0.0167002 50.6456 0.0378178 50.6777C0.0589354 50.7097 0.0877794 50.736 0.121743 50.7542C0.155706 50.7725 0.193719 50.782 0.232345 50.782H7.73657C7.79968 50.782 7.86144 50.7639 7.91432 50.7298C7.96721 50.6957 8.00895 50.6471 8.03447 50.5899L12.1299 41.4184H27.5473C27.5473 39.7411 26.8745 38.1325 25.6769 36.9464C24.4793 35.7604 22.855 35.0941 21.1613 35.094H14.9258L21.8624 18.7558L29.4426 36.5408L35.6903 50.5894C35.7158 50.6467 35.7575 50.6954 35.8105 50.7296C35.8634 50.7638 35.9253 50.782 35.9885 50.782H43.5252C43.5638 50.782 43.6018 50.7725 43.6358 50.7543C43.6698 50.7361 43.6986 50.7097 43.7197 50.6777C43.7409 50.6457 43.7536 50.6089 43.7568 50.5708C43.76 50.5327 43.7535 50.4944 43.738 50.4593V50.4592Z" fill="#636569"/>
<path fill-rule="evenodd" clip-rule="evenodd" d="M104.796 34.4273C107.52 33.2568 109.456 31.2409 109.456 27.2417C109.456 22.4295 105.321 19.4058 99.0208 19.4058H83.1029C83.0166 19.4058 82.9337 19.4398 82.8727 19.5003C82.8116 19.5608 82.7773 19.6428 82.7773 19.7284V50.4591C82.7773 50.5015 82.7857 50.5434 82.8021 50.5826C82.8184 50.6217 82.8424 50.6573 82.8726 50.6873C82.9029 50.7172 82.9388 50.741 82.9783 50.7572C83.0178 50.7735 83.0602 50.7818 83.1029 50.7818H99.2177C106.929 50.7818 110.9 47.5628 110.9 42.2957C110.9 38.2314 108.636 35.5002 104.796 34.4273ZM90.0295 25.0957H97.8066C100.596 25.0957 102.073 26.5589 102.073 28.4772C102.073 30.7858 100.563 32.1187 97.8066 32.1187H90.0295V25.0957ZM98.7255 45.0919H90.0295V37.256H98.7255C101.81 37.256 103.516 38.6541 103.516 41.2227C103.516 43.3685 101.876 45.0919 98.7255 45.0919Z" fill="#636569"/>
<path fill-rule="evenodd" clip-rule="evenodd" d="M207.343 18.7559C197.794 18.7559 190.41 25.8114 190.41 35.1428C190.41 44.5068 197.794 51.5623 207.343 51.5623C216.892 51.5623 224.275 44.5068 224.275 35.1428C224.275 25.8114 216.892 18.7559 207.343 18.7559ZM207.343 45.2547C201.535 45.2547 197.695 40.9629 197.695 35.1428C197.695 29.3553 201.535 25.0309 207.343 25.0309C213.151 25.0309 216.99 29.3553 216.99 35.1428C216.99 40.9629 213.151 45.2547 207.343 45.2547Z" fill="#636569"/>
<path fill-rule="evenodd" clip-rule="evenodd" d="M234.932 19.4058H231.23C231.187 19.4058 231.145 19.4141 231.105 19.4303C231.066 19.4465 231.03 19.4703 231 19.5002C230.969 19.5302 230.945 19.5658 230.929 19.6049C230.913 19.644 230.904 19.686 230.904 19.7284V50.4591C230.904 50.5015 230.913 50.5435 230.929 50.5826C230.945 50.6218 230.969 50.6574 231 50.6873C231.03 50.7173 231.066 50.7411 231.105 50.7573C231.145 50.7735 231.187 50.7818 231.23 50.7818H237.864C237.906 50.7818 237.949 50.7735 237.988 50.7573C238.028 50.7411 238.064 50.7173 238.094 50.6873C238.124 50.6574 238.148 50.6218 238.165 50.5826C238.181 50.5435 238.189 50.5015 238.189 50.4591V22.6315C238.189 22.2079 238.105 21.7884 237.941 21.397C237.778 21.0057 237.538 20.6501 237.235 20.3505C236.933 20.051 236.574 19.8134 236.178 19.6513C235.783 19.4892 235.36 19.4057 234.932 19.4058Z" fill="#636569"/>
<path fill-rule="evenodd" clip-rule="evenodd" d="M257.148 19.4058H253.479C253.392 19.4058 253.31 19.4398 253.248 19.5003C253.187 19.5608 253.153 19.6428 253.153 19.7284V32.1325H241.033C241.033 33.7242 241.672 35.2506 242.808 36.3761C243.945 37.5016 245.486 38.1339 247.093 38.1339H253.153V50.4591C253.153 50.5015 253.161 50.5435 253.178 50.5826C253.194 50.6218 253.218 50.6573 253.248 50.6873C253.279 50.7173 253.315 50.741 253.354 50.7573C253.394 50.7735 253.436 50.7818 253.479 50.7818H260.079C260.122 50.7818 260.165 50.7735 260.204 50.7573C260.244 50.7411 260.28 50.7173 260.31 50.6873C260.34 50.6574 260.364 50.6218 260.38 50.5826C260.397 50.5435 260.405 50.5015 260.405 50.4591V22.6315C260.405 22.2079 260.321 21.7884 260.157 21.3971C259.994 21.0057 259.754 20.6501 259.451 20.3505C259.149 20.051 258.79 19.8134 258.394 19.6513C257.999 19.4892 257.576 19.4057 257.148 19.4058Z" fill="#636569"/>
<path fill-rule="evenodd" clip-rule="evenodd" d="M180.524 19.4058H164.51C164.474 19.4058 164.439 19.4067 164.404 19.4084C163.741 19.4298 163.101 19.6509 162.568 20.0422C162.036 20.4335 161.637 20.9763 161.424 21.5982L161.423 21.5986L161.408 21.645L161.393 21.6912L152.179 50.4823C152.172 50.5047 152.168 50.5281 152.168 50.5516C152.168 50.5819 152.174 50.6118 152.186 50.6397C152.197 50.6676 152.214 50.693 152.236 50.7144C152.258 50.7358 152.283 50.7527 152.311 50.7643C152.34 50.7759 152.37 50.7818 152.4 50.7818H157.309C158.002 50.7818 158.676 50.5633 159.234 50.158C159.793 49.7527 160.206 49.1817 160.415 48.5278L167.736 25.5835H176.53V50.4591C176.53 50.5015 176.539 50.5434 176.555 50.5826C176.571 50.6217 176.595 50.6573 176.625 50.6873C176.656 50.7172 176.692 50.741 176.731 50.7572C176.771 50.7735 176.813 50.7818 176.856 50.7818H183.457C183.499 50.7818 183.542 50.7735 183.581 50.7573C183.621 50.741 183.657 50.7173 183.687 50.6873C183.717 50.6573 183.741 50.6217 183.758 50.5826C183.774 50.5435 183.782 50.5015 183.782 50.4591V22.6325C183.782 21.7768 183.439 20.956 182.828 20.3509C182.217 19.7457 181.388 19.4058 180.524 19.4058Z" fill="#636569"/>
<path fill-rule="evenodd" clip-rule="evenodd" d="M146.671 19.4058H140.388C140.311 19.4057 140.235 19.4238 140.166 19.4585C140.097 19.4933 140.038 19.5436 139.992 19.6054L125.076 39.9545V22.6315C125.076 22.2079 124.992 21.7885 124.828 21.3971C124.665 21.0057 124.425 20.6501 124.122 20.3506C123.82 20.051 123.461 19.8134 123.066 19.6513C122.67 19.4892 122.247 19.4058 121.819 19.4058H118.15C118.107 19.4058 118.065 19.4141 118.025 19.4303C117.986 19.4465 117.95 19.4703 117.92 19.5002C117.889 19.5302 117.865 19.5658 117.849 19.6049C117.833 19.644 117.824 19.686 117.824 19.7284V50.4591C117.824 50.5015 117.833 50.5435 117.849 50.5826C117.865 50.6218 117.889 50.6574 117.92 50.6873C117.95 50.7173 117.986 50.7411 118.025 50.7573C118.065 50.7735 118.107 50.7818 118.15 50.7818H124.401C124.478 50.7818 124.554 50.7637 124.623 50.729C124.691 50.6943 124.751 50.644 124.796 50.5821L139.712 30.233V50.4591C139.712 50.5015 139.72 50.5435 139.737 50.5826C139.753 50.6218 139.777 50.6573 139.807 50.6873C139.838 50.7173 139.873 50.741 139.913 50.7573C139.953 50.7735 139.995 50.7818 140.038 50.7818H146.671C146.714 50.7818 146.756 50.7735 146.796 50.7573C146.835 50.741 146.871 50.7173 146.902 50.6873C146.932 50.6573 146.956 50.6218 146.972 50.5826C146.988 50.5435 146.997 50.5015 146.997 50.4591V19.7284C146.997 19.686 146.988 19.6441 146.972 19.6049C146.956 19.5658 146.932 19.5302 146.902 19.5003C146.871 19.4703 146.835 19.4466 146.796 19.4303C146.756 19.4141 146.714 19.4058 146.671 19.4058Z" fill="#636569"/>
<path fill-rule="evenodd" clip-rule="evenodd" d="M66.7157 34.3068L76.4048 19.762C76.4277 19.7273 76.4408 19.687 76.4425 19.6456C76.4443 19.6041 76.4347 19.563 76.4148 19.5265C76.3949 19.4899 76.3653 19.4595 76.3293 19.4382C76.2933 19.417 76.2522 19.4058 76.2103 19.4058H68.8762C68.8223 19.4057 68.7692 19.419 68.7218 19.4443C68.6743 19.4696 68.6339 19.5061 68.6043 19.5507L60.3113 31.9886H55.4436V22.6315C55.4436 22.2079 55.3593 21.7884 55.1956 21.3971C55.0319 21.0057 54.792 20.6501 54.4895 20.3506C54.1871 20.051 53.828 19.8134 53.4328 19.6513C53.0376 19.4892 52.614 19.4058 52.1863 19.4058H48.5171C48.4307 19.4058 48.3479 19.4398 48.2868 19.5003C48.2257 19.5608 48.1914 19.6428 48.1914 19.7284V50.4591C48.1914 50.5015 48.1998 50.5435 48.2162 50.5826C48.2325 50.6217 48.2565 50.6573 48.2867 50.6873C48.317 50.7173 48.3529 50.741 48.3924 50.7573C48.4319 50.7735 48.4743 50.7818 48.5171 50.7818H55.1177C55.1605 50.7818 55.2029 50.7735 55.2425 50.7573C55.282 50.7411 55.3179 50.7173 55.3482 50.6873C55.3784 50.6574 55.4024 50.6218 55.4188 50.5826C55.4352 50.5435 55.4436 50.5015 55.4436 50.4591V37.7112H61.0286L69.4906 50.6348C69.5201 50.6799 69.5606 50.717 69.6083 50.7427C69.656 50.7684 69.7095 50.7819 69.7638 50.7818H77.034L77.036 50.7816C77.0779 50.7816 77.1191 50.7704 77.1551 50.7491C77.1912 50.7278 77.2207 50.6972 77.2405 50.6606C77.2604 50.624 77.2699 50.5828 77.268 50.5413C77.2661 50.4998 77.2529 50.4595 77.2297 50.4249L66.7157 34.3068Z" fill="#636569"/>
<path d="M260.404 9.50605C261.665 9.50606 262.913 9.26018 264.078 8.78246C265.242 8.30473 266.3 7.60452 267.192 6.7218C268.083 5.83908 268.79 4.79114 269.272 3.63781C269.755 2.48449 270.003 1.24835 270.003 0H270.4C270.4 1.24835 270.649 2.48448 271.131 3.63781C271.613 4.79114 272.32 5.83908 273.212 6.7218C274.103 7.60452 275.161 8.30473 276.326 8.78245C277.49 9.26018 278.739 9.50606 279.999 9.50605V9.89951C278.739 9.89951 277.49 10.1454 276.326 10.6231C275.161 11.1008 274.103 11.801 273.212 12.6838C272.32 13.5665 271.613 14.6144 271.131 15.7678C270.649 16.9211 270.4 18.1572 270.4 19.4056H270.003C270.003 18.1572 269.755 16.9211 269.272 15.7677C268.79 14.6144 268.083 13.5665 267.192 12.6838C266.3 11.801 265.242 11.1008 264.078 10.6231C262.913 10.1454 261.665 9.89951 260.404 9.89951V9.50605Z" fill="#76BC21"/>
</svg>
