<svg width="238" height="339" viewBox="0 0 238 339" fill="none" xmlns="http://www.w3.org/2000/svg">
<path d="M85.2227 229.097L92.8631 231.144L63.7771 339.63L56.0589 339.63L85.2227 229.097Z" fill="#C6C7C7"/>
<path opacity="0.08" d="M88.8179 230.06L92.9073 231.068L63.7776 339.628L59.5195 339.628L88.8179 230.06Z" fill="#0E0F12"/>
<rect x="87.0078" y="237.714" width="174.019" height="174.019" rx="8" transform="rotate(-120 87.0078 237.714)" fill="#FFB800"/>
<path d="M92.8532 228.06C90.7252 229.289 88.004 228.56 86.7753 226.432L9.65347 92.853C8.42482 90.7249 9.15395 88.0037 11.282 86.7751L144.861 9.65319C146.989 8.42454 149.71 9.15368 150.939 11.2818L228.061 144.861C229.289 146.989 228.56 149.71 226.432 150.939L92.8532 228.06Z" fill="#FFB800"/>
<path fill-rule="evenodd" clip-rule="evenodd" d="M91.8952 219.48L219.48 145.819L145.819 18.2337L18.234 91.895L91.8952 219.48ZM86.7753 226.432C88.004 228.56 90.7252 229.289 92.8532 228.06L226.432 150.939C228.56 149.71 229.289 146.989 228.061 144.861L150.939 11.2818C149.71 9.15368 146.989 8.42453 144.861 9.65319L11.282 86.7751C9.15395 88.0037 8.42481 90.7249 9.65347 92.853L86.7753 226.432Z" fill="white"/>
<path d="M95.0278 127.237L88.671 125.534L86.4764 133.724L74.6796 130.563L76.8742 122.373L54.2586 116.313L56.3714 108.428L82.7212 86.8597L95.2515 90.2172L71.1328 110.549L79.8123 112.875L81.7613 105.601L93.1913 108.664L91.2424 115.937L97.5992 117.641L95.0278 127.237Z" fill="white"/>
<path d="M112.114 141.511C108.447 140.528 105.422 138.779 103.039 136.262C100.656 133.746 99.097 130.598 98.3624 126.82C97.6794 123.012 97.9548 118.806 99.1886 114.201C100.422 109.597 102.282 105.837 104.766 102.921C107.302 99.9756 110.231 98.0089 113.553 97.021C116.875 96.0331 120.37 96.0305 124.037 97.0132C127.664 97.9849 130.669 99.7291 133.052 102.246C135.435 104.762 136.968 107.924 137.65 111.732C138.385 115.51 138.136 119.702 136.902 124.306C135.668 128.911 133.783 132.686 131.247 135.631C128.762 138.547 125.859 140.499 122.537 141.487C119.215 142.475 115.741 142.483 112.114 141.511ZM114.767 131.609C116.805 132.155 118.676 131.608 120.382 129.969C122.14 128.3 123.592 125.326 124.738 121.047C125.885 116.769 126.109 113.488 125.41 111.204C124.764 108.891 123.422 107.461 121.384 106.915C119.306 106.358 117.388 106.914 115.631 108.584C113.925 110.223 112.499 113.182 111.352 117.46C110.206 121.739 109.956 125.035 110.603 127.348C111.301 129.632 112.689 131.052 114.767 131.609Z" fill="white"/>
<path d="M176.002 148.934L169.645 147.231L167.45 155.421L155.654 152.26L157.848 144.07L135.233 138.01L137.345 130.125L163.695 108.557L176.226 111.914L152.107 132.246L160.786 134.572L162.735 127.298L174.165 130.361L172.216 137.634L178.573 139.337L176.002 148.934Z" fill="white"/>
<mask id="mask0" mask-type="alpha" maskUnits="userSpaceOnUse" x="0" y="0" width="238" height="238">
<rect x="87.0078" y="237.714" width="174.019" height="174.019" rx="8" transform="rotate(-120 87.0078 237.714)" fill="#FFB800"/>
</mask>
<g mask="url(#mask0)">
<path opacity="0.04" d="M237.712 150.705L150.703 0.000137518L87.0078 237.714L237.712 150.705Z" fill="#0E0F12"/>
</g>
</svg>
